<svg width="567" height="454" xmlns="http://www.w3.org/2000/svg" xmlns:xlink="http://www.w3.org/1999/xlink" overflow="hidden"><defs><clipPath id="clip0"><rect x="0" y="0" width="567" height="454"/></clipPath></defs><g clip-path="url(#clip0)"><rect x="0" y="0" width="567" height="454.501" fill="#FFFFFF"/><rect x="2" y="30.0331" width="562" height="35.0386" fill="#FEF6F0"/><rect x="2" y="6.00662" width="562" height="24.0265" fill="#ED7D31"/><text fill="#C00000" font-family="Times New Roman,Times New Roman_MSFontService,sans-serif" font-weight="700" font-size="9" transform="matrix(1 0 0 1.0011 16.4703 48)">Question</text><text fill="#404040" font-family="Times New Roman,Times New Roman_MSFontService,sans-serif" font-weight="400" font-size="9" transform="matrix(1 0 0 1.0011 69.537 48)">What</text><text fill="#404040" font-family="Times New Roman,Times New Roman_MSFontService,sans-serif" font-weight="400" font-size="9" transform="matrix(1 0 0 1.0011 92.3703 48)">is</text><text fill="#404040" font-family="Times New Roman,Times New Roman_MSFontService,sans-serif" font-weight="400" font-size="9" transform="matrix(1 0 0 1.0011 101.037 48)">the</text><text fill="#404040" font-family="Times New Roman,Times New Roman_MSFontService,sans-serif" font-weight="400" font-size="9" transform="matrix(1 0 0 1.0011 114.87 48)">least</text><text fill="#404040" font-family="Times New Roman,Times New Roman_MSFontService,sans-serif" font-weight="400" font-size="9" transform="matrix(1 0 0 1.0011 134.537 48)">positive</text><text fill="#404040" font-family="Times New Roman,Times New Roman_MSFontService,sans-serif" font-weight="400" font-size="9" transform="matrix(1 0 0 1.0011 166.704 48)">integer</text><text fill="#404040" font-family="Times New Roman,Times New Roman_MSFontService,sans-serif" font-weight="400" font-size="9" transform="matrix(1 0 0 1.0011 195.204 48)">multiple</text><text fill="#404040" font-family="Times New Roman,Times New Roman_MSFontService,sans-serif" font-weight="400" font-size="9" transform="matrix(1 0 0 1.0011 229.037 48)">of</text><text fill="#404040" font-family="Times New Roman,Times New Roman_MSFontService,sans-serif" font-weight="400" font-size="9" transform="matrix(1 0 0 1.0011 239.204 48)">30</text><text fill="#404040" font-family="Times New Roman,Times New Roman_MSFontService,sans-serif" font-weight="400" font-size="9" transform="matrix(1 0 0 1.0011 250.87 48)">that</text><text fill="#404040" font-family="Times New Roman,Times New Roman_MSFontService,sans-serif" font-weight="400" font-size="9" transform="matrix(1 0 0 1.0011 267.37 48)">can</text><text fill="#404040" font-family="Times New Roman,Times New Roman_MSFontService,sans-serif" font-weight="400" font-size="9" transform="matrix(1 0 0 1.0011 282.704 48)">be</text><text fill="#404040" font-family="Times New Roman,Times New Roman_MSFontService,sans-serif" font-weight="400" font-size="9" transform="matrix(1 0 0 1.0011 293.87 48)">written</text><text fill="#404040" font-family="Times New Roman,Times New Roman_MSFontService,sans-serif" font-weight="400" font-size="9" transform="matrix(1 0 0 1.0011 323.037 48)">with</text><text fill="#404040" font-family="Times New Roman,Times New Roman_MSFontService,sans-serif" font-weight="400" font-size="9" transform="matrix(1 0 0 1.0011 342.204 48)">only</text><text fill="#404040" font-family="Times New Roman,Times New Roman_MSFontService,sans-serif" font-weight="400" font-size="9" transform="matrix(1 0 0 1.0011 361.204 48)">the</text><text fill="#404040" font-family="Times New Roman,Times New Roman_MSFontService,sans-serif" font-weight="400" font-size="9" transform="matrix(1 0 0 1.0011 375.037 48)">digits</text><text fill="#404040" font-family="Times New Roman,Times New Roman_MSFontService,sans-serif" font-weight="400" font-size="9" transform="matrix(1 0 0 1.0011 398.37 48)">0</text><text fill="#404040" font-family="Times New Roman,Times New Roman_MSFontService,sans-serif" font-weight="400" font-size="9" transform="matrix(1 0 0 1.0011 405.37 48)">and</text><text fill="#404040" font-family="Times New Roman,Times New Roman_MSFontService,sans-serif" font-weight="400" font-size="9" transform="matrix(1 0 0 1.0011 421.204 48)">2</text><text fill="#404040" font-family="Times New Roman,Times New Roman_MSFontService,sans-serif" font-weight="400" font-size="9" transform="matrix(1 0 0 1.0011 425.87 48)">?</text><text fill="#C00000" font-family="Times New Roman,Times New Roman_MSFontService,sans-serif" font-weight="700" font-size="9" transform="matrix(1 0 0 1.0011 446.459 48)">Ground Truth:</text><text fill="#404040" font-family="Times New Roman,Times New Roman_MSFontService,sans-serif" font-weight="400" font-size="9" transform="matrix(1 0 0 1.0011 513.592 48)">2220</text><rect x="2" y="66.0728" width="562" height="349.385" fill="#EDF7EB"/><text fill="#C00000" font-family="Times New Roman,Times New Roman_MSFontService,sans-serif" font-weight="700" font-size="9" transform="matrix(1 0 0 1.0011 15.953 88)">HiAR</text><text fill="#C00000" font-family="Times New Roman,Times New Roman_MSFontService,sans-serif" font-weight="700" font-size="9" transform="matrix(1 0 0 1.0011 39.6196 88)">-</text><text fill="#C00000" font-family="Times New Roman,Times New Roman_MSFontService,sans-serif" font-weight="700" font-size="9" transform="matrix(1 0 0 1.0011 42.7863 88)">ICL</text><text fill="#C00000" font-family="Times New Roman,Times New Roman_MSFontService,sans-serif" font-weight="700" font-size="9" transform="matrix(1 0 0 1.0011 15.953 99)">response:</text><text fill="#404040" font-family="Times New Roman,Times New Roman_MSFontService,sans-serif" font-weight="700" font-size="8" transform="matrix(1 0 0 1.0011 77.4642 88)">Step 1: Divide and Conquer</text><text fill="#404040" font-family="Times New Roman,Times New Roman_MSFontService,sans-serif" font-style="italic" font-weight="400" font-size="8" transform="matrix(1 0 0 1.0011 85.4642 98)">SubQ</text><text fill="#404040" font-family="Times New Roman,Times New Roman_MSFontService,sans-serif" font-style="italic" font-weight="400" font-size="8" transform="matrix(1 0 0 1.0011 105.298 98)">1.1:</text><text fill="#404040" font-family="Times New Roman,Times New Roman_MSFontService,sans-serif" font-weight="400" font-size="8" transform="matrix(1 0 0 1.0011 119.964 98)">What are the factors of 30?</text><text fill="#404040" font-family="Times New Roman,Times New Roman_MSFontService,sans-serif" font-style="italic" font-weight="400" font-size="8" transform="matrix(1 0 0 1.0011 85.4642 107)">SubA</text><text fill="#404040" font-family="Times New Roman,Times New Roman_MSFontService,sans-serif" font-style="italic" font-weight="400" font-size="8" transform="matrix(1 0 0 1.0011 104.464 107)">1.1:</text><text fill="#404040" font-family="Times New Roman,Times New Roman_MSFontService,sans-serif" font-weight="400" font-size="8" transform="matrix(1 0 0 1.0011 119.131 107)">The factors of 30 are 2, 3, and 5. The answer is 2, 3, and 5.</text><text fill="#404040" font-family="Times New Roman,Times New Roman_MSFontService,sans-serif" font-weight="700" font-size="8" transform="matrix(1 0 0 1.0011 77.4642 127)">Step 2: Divide and Conquer</text><text fill="#404040" font-family="Times New Roman,Times New Roman_MSFontService,sans-serif" font-style="italic" font-weight="400" font-size="8" transform="matrix(1 0 0 1.0011 85.4642 136)">SubQ</text><text fill="#404040" font-family="Times New Roman,Times New Roman_MSFontService,sans-serif" font-style="italic" font-weight="400" font-size="8" transform="matrix(1 0 0 1.0011 105.298 136)">1.2:</text><text fill="#404040" font-family="Times New Roman,Times New Roman_MSFontService,sans-serif" font-weight="400" font-size="8" transform="matrix(1 0 0 1.0011 119.964 136)">What is the smallest digit that needs to appear at least once in our number to make sure it's divisible by 30?</text><text fill="#404040" font-family="Times New Roman,Times New Roman_MSFontService,sans-serif" font-style="italic" font-weight="400" font-size="8" transform="matrix(1 0 0 1.0011 85.4642 146)">SubA</text><text fill="#404040" font-family="Times New Roman,Times New Roman_MSFontService,sans-serif" font-style="italic" font-weight="400" font-size="8" transform="matrix(1 0 0 1.0011 104.464 146)">1.2:</text><text fill="#404040" font-family="Times New Roman,Times New Roman_MSFontService,sans-serif" font-weight="400" font-size="8" transform="matrix(1 0 0 1.0011 119.131 146)">To ensure divisibility by 30, which includes being divisible by 3 (sum of digits must be a multiple of 3), we need at least t</text><text fill="#404040" font-family="Times New Roman,Times New Roman_MSFontService,sans-serif" font-weight="400" font-size="8" transform="matrix(1 0 0 1.0011 515.131 146)">he</text><text fill="#404040" font-family="Times New Roman,Times New Roman_MSFontService,sans-serif" font-weight="400" font-size="8" transform="matrix(1 0 0 1.0011 524.798 146)">digit</text><text fill="#404040" font-family="Times New Roman,Times New Roman_MSFontService,sans-serif" font-weight="400" font-size="8" transform="matrix(1 0 0 1.0011 77.4642 156)">2 to satisfy this condition. The answer is 3.</text><text fill="#404040" font-family="Times New Roman,Times New Roman_MSFontService,sans-serif" font-weight="700" font-size="8" transform="matrix(1 0 0 1.0011 77.4642 175)">Step 3: Chain</text><text fill="#404040" font-family="Times New Roman,Times New Roman_MSFontService,sans-serif" font-weight="700" font-size="8" transform="matrix(1 0 0 1.0011 124.631 175)">-</text><text fill="#404040" font-family="Times New Roman,Times New Roman_MSFontService,sans-serif" font-weight="700" font-size="8" transform="matrix(1 0 0 1.0011 127.298 175)">of</text><text fill="#404040" font-family="Times New Roman,Times New Roman_MSFontService,sans-serif" font-weight="700" font-size="8" transform="matrix(1 0 0 1.0011 133.964 175)">-</text><text fill="#404040" font-family="Times New Roman,Times New Roman_MSFontService,sans-serif" font-weight="700" font-size="8" transform="matrix(1 0 0 1.0011 136.631 175)">Thought</text><text fill="#404040" font-family="Times New Roman,Times New Roman_MSFontService,sans-serif" font-weight="400" font-size="8" transform="matrix(1 0 0 1.0011 77.4642 185)">Let’s think step by step.</text><text fill="#404040" font-family="Times New Roman,Times New Roman_MSFontService,sans-serif" font-style="italic" font-weight="400" font-size="8" transform="matrix(1 0 0 1.0011 85.4642 205)">1.</text><text fill="#404040" font-family="Times New Roman,Times New Roman_MSFontService,sans-serif" font-weight="400" font-size="8" transform="matrix(1 0 0 1.0011 93.4642 205)">To find the least positive integer multiple of 30 that can be written with only the digits 0 and 2, let's consider the factor</text><text fill="#404040" font-family="Times New Roman,Times New Roman_MSFontService,sans-serif" font-weight="400" font-size="8" transform="matrix(1 0 0 1.0011 479.798 205)">s o</text><text fill="#404040" font-family="Times New Roman,Times New Roman_MSFontService,sans-serif" font-weight="400" font-size="8" transform="matrix(1 0 0 1.0011 488.964 205)">f 30 as</text><text fill="#404040" font-family="Times New Roman,Times New Roman_MSFontService,sans-serif" font-weight="400" font-size="8" transform="matrix(1 0 0 1.0011 77.4642 214)">mentioned in Step 1. These factors are 2, 3, and 5.</text><text fill="#404040" font-family="Times New Roman,Times New Roman_MSFontService,sans-serif" font-style="italic" font-weight="400" font-size="8" transform="matrix(1 0 0 1.0011 85.4642 234)">2.</text><text fill="#404040" font-family="Times New Roman,Times New Roman_MSFontService,sans-serif" font-weight="400" font-size="8" transform="matrix(1 0 0 1.0011 93.4642 234)">From Step 2, we know that to be divisible by 30, the number must be divisible by both 3 and 5. For divisibility by 5, the las</text><text fill="#404040" font-family="Times New Roman,Times New Roman_MSFontService,sans-serif" font-weight="400" font-size="8" transform="matrix(1 0 0 1.0011 493.464 234)">t d</text><text fill="#404040" font-family="Times New Roman,Times New Roman_MSFontService,sans-serif" font-weight="400" font-size="8" transform="matrix(1 0 0 1.0011 501.798 234)">igit must be</text><text fill="#404040" font-family="Times New Roman,Times New Roman_MSFontService,sans-serif" font-weight="400" font-size="8" transform="matrix(1 0 0 1.0011 77.4642 243)">0. For divisibility by 3, the sum of the digits must be a multiple of 3.</text><text fill="#404040" font-family="Times New Roman,Times New Roman_MSFontService,sans-serif" font-style="italic" font-weight="400" font-size="8" transform="matrix(1 0 0 1.0011 85.4642 263)">3.</text><text fill="#404040" font-family="Times New Roman,Times New Roman_MSFontService,sans-serif" font-weight="400" font-size="8" transform="matrix(1 0 0 1.0011 93.4642 263)">Starting with the smallest possible numbers composed of the digits 0 and 2:</text><text fill="#404040" font-family="Times New Roman,Times New Roman_MSFontService,sans-serif" font-weight="400" font-size="8" transform="matrix(1 0 0 1.0011 103.464 273)">a. **Two</text><text fill="#404040" font-family="Times New Roman,Times New Roman_MSFontService,sans-serif" font-weight="400" font-size="8" transform="matrix(1 0 0 1.0011 133.964 273)">-</text><text fill="#404040" font-family="Times New Roman,Times New Roman_MSFontService,sans-serif" font-weight="400" font-size="8" transform="matrix(1 0 0 1.0011 136.631 273)">digit numbers**:</text><text fill="#404040" font-family="Times New Roman,Times New Roman_MSFontService,sans-serif" font-weight="400" font-size="7" transform="matrix(1 0 0 1.0011 115.464 282)">20: Sum = 2 (not divisible by 3)</text><text fill="#404040" font-family="Times New Roman,Times New Roman_MSFontService,sans-serif" font-weight="400" font-size="7" transform="matrix(1 0 0 1.0011 115.964 291)">02: Not valid since leading zeros are not allowed</text><text fill="#404040" font-family="Times New Roman,Times New Roman_MSFontService,sans-serif" font-weight="400" font-size="8" transform="matrix(1 0 0 1.0011 103.464 301)">b. **Three</text><text fill="#404040" font-family="Times New Roman,Times New Roman_MSFontService,sans-serif" font-weight="400" font-size="8" transform="matrix(1 0 0 1.0011 138.464 301)">-</text><text fill="#404040" font-family="Times New Roman,Times New Roman_MSFontService,sans-serif" font-weight="400" font-size="8" transform="matrix(1 0 0 1.0011 141.131 301)">digit numbers**:</text><text fill="#404040" font-family="Times New Roman,Times New Roman_MSFontService,sans-serif" font-weight="400" font-size="8" transform="matrix(1 0 0 1.0011 117.464 311)">202: Sum = 2 + 0 + 2 = 4 (not divisible by 3)</text><text fill="#404040" font-family="Times New Roman,Times New Roman_MSFontService,sans-serif" font-weight="400" font-size="8" transform="matrix(1 0 0 1.0011 117.464 320)">220: Sum = 2 + 2 + 0 = 4 (not divisible by 3)</text><text fill="#404040" font-family="Times New Roman,Times New Roman_MSFontService,sans-serif" font-weight="400" font-size="8" transform="matrix(1 0 0 1.0011 103.464 330)">c. **Four</text><text fill="#404040" font-family="Times New Roman,Times New Roman_MSFontService,sans-serif" font-weight="400" font-size="8" transform="matrix(1 0 0 1.0011 134.298 330)">-</text><text fill="#404040" font-family="Times New Roman,Times New Roman_MSFontService,sans-serif" font-weight="400" font-size="8" transform="matrix(1 0 0 1.0011 136.964 330)">digit numbers**:</text><text fill="#404040" font-family="Times New Roman,Times New Roman_MSFontService,sans-serif" font-weight="400" font-size="7" transform="matrix(1 0 0 1.0011 117.464 340)">2020: Sum = 2 + 0 + 2 + 0 = 4 (not divisible by 3)</text><text fill="#404040" font-family="Times New Roman,Times New Roman_MSFontService,sans-serif" font-weight="400" font-size="7" transform="matrix(1 0 0 1.0011 117.798 349)">2200: Sum = 2 + 2 + 0 + 0 = 4 (not divisible by 3)</text><text fill="#404040" font-family="Times New Roman,Times New Roman_MSFontService,sans-serif" font-weight="400" font-size="7" transform="matrix(1 0 0 1.0011 117.798 357)">2220: Sum = 2 + 2 + 2 + 0 = 6 (divisible by 3) and ends in 0 (divisible by 5)</text><text fill="#404040" font-family="Times New Roman,Times New Roman_MSFontService,sans-serif" font-weight="400" font-size="8" transform="matrix(1 0 0 1.0011 77.4642 377)">Since 2220 satisfies all conditions (divisibility by 2, 3, and 5), it is the smallest such number. Thus, the least positive i</text><text fill="#404040" font-family="Times New Roman,Times New Roman_MSFontService,sans-serif" font-weight="400" font-size="8" transform="matrix(1 0 0 1.0011 460.964 377)">nte</text><text fill="#404040" font-family="Times New Roman,Times New Roman_MSFontService,sans-serif" font-weight="400" font-size="8" transform="matrix(1 0 0 1.0011 470.964 377)">ger multiple of 30 that</text><text fill="#404040" font-family="Times New Roman,Times New Roman_MSFontService,sans-serif" font-weight="400" font-size="8" transform="matrix(1 0 0 1.0011 77.4642 386)">can be written with only the digits 0 and 2 is</text><text fill="#404040" font-family="Times New Roman,Times New Roman_MSFontService,sans-serif" font-weight="400" font-size="8" transform="matrix(1 0 0 1.0011 223.798 386)">\</text><text fill="#404040" font-family="Times New Roman,Times New Roman_MSFontService,sans-serif" font-weight="400" font-size="8" transform="matrix(1 0 0 1.0011 226.131 386)">\</text><text fill="#404040" font-family="Times New Roman,Times New Roman_MSFontService,sans-serif" font-weight="400" font-size="8" transform="matrix(1 0 0 1.0011 228.464 386)">(</text><text fill="#404040" font-family="Times New Roman,Times New Roman_MSFontService,sans-serif" font-weight="400" font-size="8" transform="matrix(1 0 0 1.0011 231.131 386)">\</text><text fill="#404040" font-family="Times New Roman,Times New Roman_MSFontService,sans-serif" font-weight="400" font-size="8" transform="matrix(1 0 0 1.0011 233.464 386)">\</text><text fill="#404040" font-family="Times New Roman,Times New Roman_MSFontService,sans-serif" font-weight="400" font-size="8" transform="matrix(1 0 0 1.0011 235.798 386)">boxed{2220}</text><text fill="#404040" font-family="Times New Roman,Times New Roman_MSFontService,sans-serif" font-weight="400" font-size="8" transform="matrix(1 0 0 1.0011 279.131 386)">\</text><text fill="#404040" font-family="Times New Roman,Times New Roman_MSFontService,sans-serif" font-weight="400" font-size="8" transform="matrix(1 0 0 1.0011 281.464 386)">\</text><text fill="#404040" font-family="Times New Roman,Times New Roman_MSFontService,sans-serif" font-weight="400" font-size="8" transform="matrix(1 0 0 1.0011 283.798 386)">).</text><text fill="#404040" font-family="Times New Roman,Times New Roman_MSFontService,sans-serif" font-weight="400" font-size="8" transform="matrix(1 0 0 1.0011 77.4642 406)">The answer is: 2220</text><text fill="#404040" font-family="Times New Roman,Times New Roman_MSFontService,sans-serif" font-weight="700" font-size="12" transform="matrix(1 0 0 1.0011 175.28 21)">Example 1 on MATH</text><text fill="#404040" font-family="Times New Roman,Times New Roman_MSFontService,sans-serif" font-weight="700" font-size="12" transform="matrix(1 0 0 1.0011 289.113 21)">–</text><text fill="#404040" font-family="Times New Roman,Times New Roman_MSFontService,sans-serif" font-weight="700" font-size="12" transform="matrix(1 0 0 1.0011 298.113 21)">Number Theory</text><rect x="127.5" y="397.938" width="22" height="13.0143" stroke="#000000" stroke-miterlimit="8" fill="none"/><text font-family="Calibri,Calibri_MSFontService,sans-serif" font-style="italic" font-weight="700" font-size="9" transform="matrix(1 0 0 1.0011 17.3819 431)">Figure</text><text font-family="Calibri,Calibri_MSFontService,sans-serif" font-style="italic" font-weight="700" font-size="9" transform="matrix(1 0 0 1.0011 45.0286 431)">Caption</text><text font-family="Calibri,Calibri_MSFontService,sans-serif" font-style="italic" font-weight="700" font-size="9" transform="matrix(1 0 0 1.0011 75.3619 431)">:</text><text font-family="Calibri,Calibri_MSFontService,sans-serif" font-weight="400" font-size="9" transform="matrix(1 0 0 1.0011 80.8419 431)">Reasoning</text><text font-family="Calibri,Calibri_MSFontService,sans-serif" font-weight="400" font-size="9" transform="matrix(1 0 0 1.0011 122.822 431)">Path</text><text font-family="Calibri,Calibri_MSFontService,sans-serif" font-weight="400" font-size="9" transform="matrix(1 0 0 1.0011 143.135 431)">Visualization</text><text font-family="Calibri,Calibri_MSFontService,sans-serif" font-weight="400" font-size="9" transform="matrix(1 0 0 1.0011 191.302 431)">.</text><text font-family="Calibri,Calibri_MSFontService,sans-serif" font-weight="400" font-size="9" transform="matrix(1 0 0 1.0011 196.615 431)">As</text><text font-family="Calibri,Calibri_MSFontService,sans-serif" font-weight="400" font-size="9" transform="matrix(1 0 0 1.0011 208.595 431)">this</text><text font-family="Calibri,Calibri_MSFontService,sans-serif" font-weight="400" font-size="9" transform="matrix(1 0 0 1.0011 225.409 431)">test</text><text font-family="Calibri,Calibri_MSFontService,sans-serif" font-weight="400" font-size="9" transform="matrix(1 0 0 1.0011 243.055 431)">question</text><text font-family="Calibri,Calibri_MSFontService,sans-serif" font-weight="400" font-size="9" transform="matrix(1 0 0 1.0011 279.202 431)">matches</text><text font-family="Calibri,Calibri_MSFontService,sans-serif" font-weight="400" font-size="9" transform="matrix(1 0 0 1.0011 314.515 431)">thought</text><text font-family="Calibri,Calibri_MSFontService,sans-serif" font-weight="400" font-size="9" transform="matrix(1 0 0 1.0011 347.662 431)">card</text><text font-family="Calibri,Calibri_MSFontService,sans-serif" font-weight="400" font-size="9" transform="matrix(1 0 0 1.0011 367.309 431)">k,</text><text font-family="Calibri,Calibri_MSFontService,sans-serif" font-weight="400" font-size="9" transform="matrix(1 0 0 1.0011 376.789 431)">reasoning</text><text font-family="Calibri,Calibri_MSFontService,sans-serif" font-weight="400" font-size="9" transform="matrix(1 0 0 1.0011 417.102 431)">follows</text><text font-family="Calibri,Calibri_MSFontService,sans-serif" font-weight="400" font-size="9" transform="matrix(1 0 0 1.0011 447.582 431)">the</text><text font-family="Calibri,Calibri_MSFontService,sans-serif" font-weight="400" font-size="9" transform="matrix(1 0 0 1.0011 463.229 431)">corresponding</text><text font-family="Calibri,Calibri_MSFontService,sans-serif" font-weight="400" font-size="9" transform="matrix(1 0 0 1.0011 521.049 431)">pattern</text><text font-family="Calibri,Calibri_MSFontService,sans-serif" font-weight="400" font-size="9" transform="matrix(1 0 0 1.0011 17.3819 442)">“</text><text font-family="Calibri,Calibri_MSFontService,sans-serif" font-weight="400" font-size="9" transform="matrix(1 0 0 1.0011 21.2153 442)">DC→DC→CoT</text><text font-family="Calibri,Calibri_MSFontService,sans-serif" font-weight="400" font-size="9" transform="matrix(1 0 0 1.0011 74.0486 442)">”</text><text font-family="Calibri,Calibri_MSFontService,sans-serif" font-weight="400" font-size="9" transform="matrix(1 0 0 1.0011 77.8819 442)">.</text></g></svg>